<svg width="32" height="32" viewBox="0 0 32 32" fill="none" xmlns="http://www.w3.org/2000/svg">
<path d="M7.42784 10.5161C7.04584 8.00006 8.81983 5.74006 11.5298 4.91206C12.0107 4.76502 12.5296 4.80688 12.9808 5.02909C13.4319 5.25131 13.7813 5.63717 13.9578 6.10806L14.8278 8.42806C14.9679 8.80128 14.9932 9.20785 14.9006 9.59557C14.8079 9.98329 14.6015 10.3345 14.3078 10.6041L11.7198 12.9741C11.5923 13.0911 11.4972 13.2392 11.4439 13.404C11.3907 13.5687 11.381 13.7445 11.4158 13.9141L11.4398 14.0181L11.5018 14.2781C11.8237 15.5413 12.3141 16.7556 12.9598 17.8881C13.6633 19.0915 14.5362 20.1874 15.5518 21.1421L15.6318 21.2141C15.761 21.3287 15.9177 21.408 16.0867 21.4441C16.2556 21.4802 16.431 21.4719 16.5958 21.4201L19.9418 20.3661C20.3221 20.2467 20.7294 20.2436 21.1114 20.3573C21.4934 20.471 21.8327 20.6962 22.0858 21.0041L23.6698 22.9261C24.3298 23.7261 24.2498 24.9021 23.4918 25.6081C21.4178 27.5421 18.5658 27.9381 16.5818 26.3441C14.1499 24.3824 12.0997 21.9899 10.5338 19.2861C8.95522 16.5843 7.90276 13.6089 7.42784 10.5161ZM13.5118 14.0461L15.6558 12.0781C16.2435 11.5391 16.6567 10.8369 16.8424 10.0614C17.028 9.28595 16.9777 8.4727 16.6978 7.72606L15.8298 5.40606C15.4745 4.459 14.7716 3.68297 13.8643 3.23597C12.9569 2.78897 11.9132 2.7046 10.9458 3.00006C7.57984 4.03006 4.87783 7.04806 5.44983 10.8181C5.84983 13.4501 6.77184 16.7981 8.80584 20.2941C10.4953 23.2095 12.7068 25.7891 15.3298 27.9041C18.3058 30.2941 22.2778 29.4781 24.8578 27.0741C25.5961 26.3867 26.0442 25.4435 26.1107 24.437C26.1772 23.4306 25.8572 22.4366 25.2158 21.6581L23.6318 19.7341C23.1251 19.119 22.4462 18.6694 21.6822 18.4427C20.9182 18.2161 20.104 18.2228 19.3438 18.4621L16.5658 19.3361C15.8486 18.5965 15.2203 17.7756 14.6938 16.8901C14.1853 15.9948 13.789 15.0403 13.5138 14.0481" fill="white"/>
</svg>
