<svg width="512" height="512" viewBox="0 0 512 512" fill="none" xmlns="http://www.w3.org/2000/svg">
<path d="M217.395 125.466C208.23 127.258 198.195 133.197 190.31 147.123C189.48 148.586 188.369 149.87 187.043 150.903C185.716 151.937 184.198 152.699 182.577 153.146C180.956 153.592 179.263 153.716 177.594 153.508C175.925 153.301 174.313 152.766 172.851 151.936C171.388 151.106 170.104 149.995 169.071 148.669C168.037 147.342 167.275 145.824 166.829 144.203C166.382 142.582 166.258 140.889 166.466 139.22C166.673 137.551 167.208 135.939 168.038 134.477C179.328 114.611 195.379 103.68 212.48 100.352C228.391 97.3442 244.849 100.66 258.355 109.594C270.745 117.786 280.755 131.174 281.062 147.226C281.395 163.994 271.206 179.123 252.416 190.234C239.667 197.76 234.7 202.88 232.576 206.285C230.784 209.152 230.4 211.763 230.4 217.6C230.4 220.995 229.051 224.25 226.651 226.651C224.25 229.051 220.994 230.4 217.6 230.4C214.205 230.4 210.949 229.051 208.549 226.651C206.148 224.25 204.8 220.995 204.8 217.6C204.8 210.637 205.158 201.984 210.867 192.768C216.243 184.141 225.433 176.461 239.411 168.192C253.107 160.077 255.59 152.371 255.513 147.763C255.411 142.464 251.878 135.987 244.249 130.944C236.351 125.719 226.735 123.755 217.42 125.466M224 294.4C229.092 294.4 233.975 292.377 237.576 288.776C241.177 285.176 243.2 280.292 243.2 275.2C243.2 270.108 241.177 265.224 237.576 261.624C233.975 258.023 229.092 256 224 256C218.907 256 214.024 258.023 210.423 261.624C206.823 265.224 204.8 270.108 204.8 275.2C204.8 280.292 206.823 285.176 210.423 288.776C214.024 292.377 218.907 294.4 224 294.4ZM217.574 25.6C188.556 25.5932 160.041 33.1749 134.858 47.5927C109.676 62.0104 88.701 82.7629 74.016 107.791C59.3311 132.819 51.4463 161.251 51.1442 190.268C50.8422 219.284 58.1333 247.875 72.294 273.203L51.9421 326.502C50.2481 330.933 49.8184 335.747 50.7009 340.408C51.5834 345.068 53.7434 349.392 56.94 352.897C60.1366 356.401 64.2439 358.949 68.8039 360.255C73.3639 361.561 78.1971 361.575 82.7645 360.294L146.432 342.451C168.984 353.107 193.643 358.556 218.586 358.397C243.528 358.237 268.116 352.471 290.53 341.527C312.943 330.583 332.61 314.74 348.075 295.17C363.54 275.6 374.408 252.803 379.874 228.467C385.34 204.13 385.265 178.876 379.655 154.572C374.044 130.268 363.042 107.536 347.461 88.0581C331.881 68.58 312.12 52.8538 289.642 42.0427C267.164 31.2315 242.543 25.6121 217.6 25.6M76.7997 192C76.811 161.317 86.8452 131.477 105.375 107.021C123.906 82.5645 149.918 64.831 179.453 56.5181C208.989 48.2052 240.432 49.7681 268.998 60.9689C297.564 72.1698 321.689 92.3955 337.703 118.569C353.717 144.742 360.742 175.43 357.711 205.963C354.679 236.496 341.757 265.203 320.909 287.717C300.062 310.23 272.431 325.318 242.22 330.683C212.01 336.048 180.873 331.398 153.548 317.44L149.094 315.136L75.878 335.642L100.684 270.72L97.4076 265.344C83.8856 243.272 76.7691 217.885 76.7997 192ZM293.427 435.2C269.474 435.227 245.798 430.069 224.026 420.083C202.254 410.096 182.901 395.516 167.296 377.344C181.998 381.327 197.124 383.536 212.352 383.923C236.065 400.672 264.395 409.644 293.427 409.6C316.518 409.6 338.278 404.045 357.478 394.24L361.932 391.936L435.148 412.442L410.342 347.52L413.619 342.144C426.675 320.794 434.227 295.706 434.227 268.8C434.267 240.373 425.66 212.605 409.548 189.184C409.34 173.954 407.321 158.804 403.532 144.051C421.245 159.648 435.428 178.842 445.135 200.354C454.843 221.865 459.851 245.2 459.827 268.8C459.827 298.266 452.147 325.965 438.707 350.003L459.059 403.302C460.75 407.73 461.179 412.541 460.297 417.199C459.415 421.856 457.258 426.177 454.065 429.681C450.872 433.184 446.769 435.732 442.213 437.041C437.658 438.35 432.828 438.369 428.262 437.094L364.569 419.251C342.988 429.491 318.873 435.2 293.427 435.2Z" fill="#001F3F"/>
</svg>
