<?xml version="1.0" standalone="no"?>
<!DOCTYPE svg PUBLIC "-//W3C//DTD SVG 20010904//EN"
 "http://www.w3.org/TR/2001/REC-SVG-20010904/DTD/svg10.dtd">
<svg version="1.0" xmlns="http://www.w3.org/2000/svg"
 width="161.000000pt" height="151.000000pt" viewBox="0 0 161.000000 151.000000"
 preserveAspectRatio="xMidYMid meet">

<g transform="translate(0.000000,151.000000) scale(0.100000,-0.100000)"
fill="#000000" stroke="none">
<path d="M1160 1466 c16 -43 12 -113 -10 -155 -42 -84 -143 -127 -228 -98 -39
13 -41 13 -30 -1 20 -24 89 -52 129 -52 59 0 138 47 166 99 37 71 27 180 -21
220 -15 13 -16 12 -6 -13z"/>
<path d="M980 1030 c-224 -32 -398 -218 -412 -440 l-3 -45 87 -7 c105 -8 200
-38 269 -84 28 -19 53 -34 55 -34 2 0 4 52 4 115 l0 115 70 0 70 0 0 -299 0
-300 215 0 215 0 0 285 c0 279 -1 287 -25 361 -29 86 -68 147 -134 211 -95 90
-268 142 -411 122z m360 -591 l0 -192 -36 6 c-114 19 -183 147 -140 261 25 64
89 115 149 116 l27 0 0 -191z"/>
<path d="M0 445 l0 -95 85 0 85 0 0 95 0 95 -85 0 -85 0 0 -95z"/>
<path d="M190 534 c0 -3 26 -46 58 -95 l57 -89 128 0 127 0 0 -150 0 -150 115
0 115 0 0 150 0 150 -115 0 -115 0 0 95 0 95 -185 0 c-102 0 -185 -3 -185 -6z"/>
<path d="M180 205 l0 -145 145 0 c80 0 145 3 145 7 0 3 -39 68 -86 145 l-86
138 -59 0 -59 0 0 -145z"/>
</g>
</svg>
